<?xml version="1.0" encoding="UTF-8"?><svg id="Layer_2" xmlns="http://www.w3.org/2000/svg" viewBox="0 0 121.64 804.24"><defs><style>.cls-1{fill:#545454;stroke-width:0px;}</style></defs><g id="Layer_1-2"><path class="cls-1" d="m87.85,423.39l1.22-218.45L0,0v804.24h121.64v-346.17l-33.79-34.68ZM20.59,256.54v-.08l-.1-.11h.1v.11l.05.06-.05.02Zm70.76,417.17c0,16.86-13.67,30.53-30.53,30.53-8.43,0-16.07-3.42-21.6-8.94-5.52-5.53-8.94-13.16-8.94-21.59v-69.99c0-16.86,13.67-30.53,30.54-30.53,8.43,0,16.06,3.42,21.59,8.94,5.52,5.53,8.94,13.16,8.94,21.59v69.99Z"/></g></svg>