<?xml version="1.0" encoding="UTF-8"?><svg id="Layer_2" xmlns="http://www.w3.org/2000/svg" viewBox="0 0 476.55 412.8"><defs><style>.cls-1{fill:none;}.cls-1,.cls-2{stroke-width:0px;}.cls-2{fill:#5b88bc;}</style></defs><g id="Layer_1-2"><path class="cls-2" d="m164.94,298.8V0h57.97v106.77l61.87,11.66v81.09c0,20.66-11.48,40.49-32.19,57.65-20.72,17.16-50.68,31.66-87.64,41.62Z"/><path class="cls-2" d="m29.53,235.91v-69.08c0-40.08,22.15-62.89,59.86-62.89s58.37,18.57,58.37,56.7v19.88h-46.99v-21.51c0-14.99-4.19-18.9-11.37-18.9s-10.77,5.54-10.77,22.16v78.21c0,16.95,3.89,21.83,11.07,21.83s11.07-4.89,11.07-18.57v-25.09h46.99v22.81c0,38.13-21.85,57.35-58.37,57.35s-59.86-23.46-59.86-62.89Z"/><path class="cls-2" d="m301.96,235.91v-69.08c0-40.08,22.15-62.89,59.86-62.89s58.37,18.57,58.37,56.7v19.88h-46.99v-21.51c0-14.99-4.19-18.9-11.37-18.9s-10.77,5.54-10.77,22.16v78.21c0,16.95,3.89,21.83,11.07,21.83s11.07-4.89,11.07-18.57v-25.09h46.99v22.81c0,38.13-21.85,57.35-58.37,57.35s-59.86-23.46-59.86-62.89Z"/><rect class="cls-1" y="298.8" width="476.55" height="114.01"/></g></svg>