<?xml version="1.0" encoding="UTF-8"?><svg id="Layer_2" xmlns="http://www.w3.org/2000/svg" viewBox="0 0 1544.46 283.92"><defs><style>.cls-1{stroke-width:0px;}</style></defs><g id="Layer_1-2"><path class="cls-1" d="m1544.46,283.92c-25.79-.47-42.63-13.34-58.06-33.72-39.8-52.58-82.12-103.3-132.82-152.96-1.34,11.58-3.7,23.15-3.85,34.75-.52,41.32.94,82.72-1.32,123.93-.47,8.59-13.61,16.51-20.91,24.73-6.2-8.13-17.62-16.17-17.77-24.42-1.4-75.55-1.27-151.14-.29-226.7.11-8.62,8.31-24.37,12.57-24.3,11.48.17,26.79,3.84,33.62,11.89,36.79,43.41,71.39,88.62,106.92,133.08,8.69,10.87,18.02,21.24,33.37,39.25,3.21-17.71,6.18-26.94,6.34-36.22.6-34.23,2.41-68.65-.33-102.68-2.65-32.84,5.91-52.07,42.54-50.46v283.83Z"/><path class="cls-1" d="m1010.29,97.44c0,51.21.87,102.45-.75,153.61-.32,10.03-8.13,25.27-16.32,28.44-14.8,5.73-27.46-.72-27.35-20.93.44-77.96-.18-155.93.79-233.88.09-7.08,9.29-20.27,13.25-19.91,11.85,1.09,27.13,4.22,34.1,12.38,34.65,40.56,66.9,83.12,100.35,124.7,11.39,14.16,23.81,27.51,35.76,41.23,3.21-1.03,6.42-2.06,9.64-3.08,0-48.89-.9-97.8.73-146.63.34-10.15,10.05-20,15.44-29.98,9.36,7.23,26.66,14.26,26.85,21.72,1.99,77.91,1.58,155.9.64,233.85-.09,7.19-8.94,20.51-12.88,20.21-10.56-.81-24.03-4.71-30.4-12.27-36.68-43.54-71.51-88.59-107.23-132.91-10.79-13.38-22.42-26.1-33.67-39.13-2.99.86-5.97,1.72-8.96,2.58Z"/><path class="cls-1" d="m545.34,140.2c.17,82.59-58.06,141.24-140.33,141.32-81.03.08-143.28-61.6-142.14-140.85C264.01,61.21,326.47,1,407.32,1.44c81.96.45,137.85,56.63,138.02,138.76Zm-45.7,1.3c-.08-56.64-40.57-100.47-93.24-100.96-52.97-.49-98.82,47.58-97.56,102.27,1.25,54.12,45.46,99.06,97.39,98.99,53.52-.08,93.49-43,93.41-100.3Z"/><path class="cls-1" d="m864.02,223.08c5.75,14.25,13.55,33.56,21.68,53.7-29.76,9.58-49.21,4.63-58.06-24.76-3.03-10.06-9.29-19.12-12.93-29.05-7.15-19.5-17.83-27.82-40.63-21.67-28.54,7.7-59.21,8.44-86.97,17.88-12.79,4.35-24.51,20.73-30.31,34.32-11.04,25.88-26.68,33.77-58.54,21.39,37.38-33.77,6.7-69.7.12-112.38,40.2,21.96,53.22,3.45,64.23-24.2,14.83-37.22,31.7-73.76,50.03-109.42,5.47-10.64,19.56-24.91,28.28-24.01,11.76,1.21,26.2,13.32,32.33,24.57,16.9,31.03,30.59,63.83,44.55,96.35,9.21,21.46,19.15,39.19,46.63,42.77,8.95,1.17,20.29,15.16,22.49,25.04,1.42,6.38-11.8,15.94-22.88,29.48Zm-172.93-46.08c30.95-5.28,53.99-8.2,76.34-13.8,5.03-1.26,12.28-13.54,10.66-17.86-9.1-24.19-20.62-47.48-31.3-71.09-3.42.33-6.83.66-10.25,1-14.02,31.38-28.03,62.76-45.45,101.75Z"/><path class="cls-1" d="m27.64,203.36c6.19,6.43,10.13,13.9,16.05,16.04,18.89,6.81,41.12,19.77,57.05,14.76,13.73-4.32,27.83-29.41,29.15-46.28,3.94-50.56,1.55-101.59,1.96-152.43.12-15.07-2.71-31.71,21.68-32.52,26.44-.88,24.76,16.22,24.2,33.19-1.94,58.92-2.31,117.97-6.76,176.71-2.81,37.08-27.87,60.56-64.05,67.13-38.54,6.99-73.99-2.12-99.35-34.81-20.55-26.49,5.77-30.12,20.08-41.78Z"/></g></svg>