<?xml version="1.0" encoding="UTF-8"?><svg id="Layer_2" xmlns="http://www.w3.org/2000/svg" viewBox="0 0 2544.82 675.85"><defs><style>.cls-1{stroke-width:0px;}</style></defs><g id="Layer_1-2"><path class="cls-1" d="m2114.94,554.39c-4.23,6.13-7.91,11.63-11.76,17.01-21.12,29.54-45.91,55.31-77.27,74.18-31.82,19.15-66.13,28.69-103.43,25.12-37.53-3.59-68.38-19.88-91.26-50.1-6.8-8.99-12.57-18.76-18.8-28.18-.8-1.22-1.52-2.49-2.06-3.39-10.14,7.43-19.71,15.18-30.01,21.82-15.76,10.17-32.98,16.68-52.1,16.41-27.58-.38-47.17-14.17-60.88-37.2-9.84-16.53-13.84-34.76-14.89-53.77-.09-1.65-.01-3.3-.99-5.53-1.36,1.69-2.78,3.33-4.05,5.08-18.55,25.46-38.18,50.03-60.95,71.91-19.75,18.98-40.6,36.6-65.53,48.54-15.5,7.43-31.78,11.93-49.25,9.77-26.19-3.25-43.86-21.75-46.23-48.36-2.55-28.58,3.53-55.93,12.48-82.74,15.39-46.09,38.85-88.14,65.83-128.3,15.78-23.49,32.01-46.68,52.71-66.31,18.83-17.85,38.72-34.14,63.39-43.45,14.18-5.35,28.87-7.92,44.03-7.19,13.9.66,25.94,6.04,35.65,15.89,17.29,17.54,26.11,38.81,25.35,63.44-.19,5.99-2.49,12.54-5.67,17.69-6,9.73-17.54,7.79-23.93-1.55-20.82-30.41-50.66-45.05-84.21-28.32-18.1,9.03-32.05,23.01-45.31,37.86-22.53,25.24-36.84,55.2-49.47,86.08-11.41,27.89-20.92,56.46-25.43,86.34-1.75,11.56-1.5,23.47-1.5,35.21,0,3.61,1.71,7.46,3.44,10.78,2.75,5.25,7.89,8.18,13.37,6.19,8.66-3.14,17.36-6.83,25.05-11.8,22.52-14.57,40-34.49,56.23-55.53,24.67-31.97,44.94-66.76,65.05-101.64,4.49-7.78,8.57-15.88,13.87-23.07,4.76-6.46,10.14-13.05,16.65-17.55,20.41-14.13,45.14-4.05,51.03,20.06,2.94,12.02.45,23.8-1.41,35.62-4.21,26.8-7.73,53.7-7.25,80.88.18,10.27,1.78,20.51,2.87,30.76.21,1.95.9,3.89,1.62,5.74,2.82,7.25,7.97,9.89,15.07,6.6,5.5-2.55,11.12-5.74,15.36-9.97,12.37-12.32,24.13-25.25,35.94-38.12,1.1-1.2,1.32-3.63,1.22-5.46-.94-17.59-3.45-35.22-2.82-52.74,2.16-60.05,21.58-114.04,61.06-159.87,18.02-20.92,40.61-35.39,68.46-40.05,44.94-7.51,82.47,20.8,83.02,67.73.29,24.19-7.57,46.09-18.35,67.12-20.73,40.43-51.85,69.6-94.85,85.39-3.64,1.34-7.81,2.05-11.68,1.84-10.97-.58-16.96-10.36-13.1-20.69,2.45-6.55,7.28-11.17,12.99-14.72,27.53-17.11,45.91-42.05,60.63-70.14,4.86-9.27,8.02-18.97,6.57-29.68-1.97-14.55-13.18-22.41-27.59-19.08-14.88,3.44-25.87,12.53-34.65,24.57-14.37,19.73-22.38,42.21-27.64,65.72-8.39,37.49-9.71,75.11-.42,112.69,4.43,17.93,11.87,34.46,23.15,49.29,24.09,31.69,66.11,38.62,98.7,22.34,21.17-10.58,37.81-26.46,52.82-44.26,24.59-29.16,43.74-61.9,62.16-95.09.85-1.53,1-3.86.59-5.61-13.63-58.98-16.81-118.75-13.62-178.99,2.59-48.84,10.08-96.84,25.25-143.46,14.03-43.09,34.47-82.53,67.18-114.67,21.57-21.2,46.43-36.92,76.8-41.8,34.6-5.56,65.29,2.33,89.13,29.42,15.83,17.98,19.7,39.64,18.17,62.92-3.28,49.93-18.44,96.76-36.91,142.7-23.18,57.66-52.61,112.23-82.92,166.36-7.55,13.49-14.42,27.36-22.16,40.73-2.19,3.79-5.86,7.47-9.75,9.39-8.53,4.19-17.51-1.45-18.69-10.89-.95-7.62,1.49-14.41,5.09-20.94,24.79-44.9,46.26-91.31,63.43-139.66,14.94-42.06,26.54-84.99,33.21-129.16,3.63-24.04,6.15-48.23,4.2-72.57-.59-7.38-1.93-14.92-4.37-21.89-5.47-15.62-18.04-21.81-34.15-17.79-13.08,3.27-23.83,10.73-34.31,18.8-22.55,17.35-36.86,40.83-49.12,65.79-17.83,36.31-28.11,74.82-33.27,114.84-6.12,47.47-5.36,94.93-.03,142.37,9.1,81.06,27.68,160,53.82,237.21,4.59,13.57,7.94,27.12,2.58,41.36-5.54,14.72-17.54,18.93-30.54,10.03-4.05-2.78-7.7-6.41-10.79-10.25-3.1-3.84-5.63-8.25-7.81-12.71-13.34-27.32-21.56-56.43-29.77-85.54-.67-2.36-1.41-4.7-2.36-7.82Z"/><path class="cls-1" d="m85.65,432.19c.04-.82.11-1.64.13-2.46,1.1-43.74,1.47-87.52,3.48-131.23,2.63-57.01,8.13-113.77,21.83-169.39,7.02-28.51,16.27-56.22,32.49-81.06,12.99-19.9,29.47-35.63,53.11-42.17,17.12-4.74,34.33-4.14,51.28.66,14.83,4.2,25.31,14.31,33.54,26.91,11.8,18.05,18.63,38.19,24.07,58.81,9.73,36.88,16.6,74.36,19.06,112.4,3.44,53.11,5.9,106.29,8.09,159.47,1.59,38.57,2.03,77.18,3.05,115.77.12,4.45.65,8.89,1.93,13.37,1.74-11.1,3.36-22.22,5.25-33.29,17.52-102.77,41.06-203.9,82.95-299.93,15.14-34.71,33.17-67.84,57.29-97.3,18.47-22.56,39.72-41.72,67.4-52.46,20.07-7.78,40.76-9.73,61.77-4.77,32.21,7.6,49.59,29.87,58.09,60.29,6.64,23.77,6.59,48.01,3.61,72.28-4.57,37.24-15.44,73.1-24.61,109.31-11.48,45.33-20.13,91.14-25.09,137.67-4.49,42.04-7.7,84.14-8.39,126.42-.62,37.96,3.44,75.29,13.78,111.95,2.73,9.66,3.72,19.9,4.61,29.95.54,6.09-1.33,12.03-7.61,15.1-6.2,3.03-12.11,1.7-17.39-2.14-3.47-2.53-7.07-5.27-9.54-8.7-5.81-8.07-11.69-16.24-16.27-25.02-13.69-26.25-20.93-54.37-23.92-83.82-3.11-30.68-4.43-61.38-3.81-92.19,1.11-54.37,7.87-108.11,19.65-161.13,9.29-41.83,20.09-83.32,29.72-125.08,5.45-23.64,8.14-47.69,2.37-71.66-1.93-8.04-5.56-16.1-10.16-22.98-6.59-9.84-16.86-12.42-28.3-9.44-10.97,2.86-19.69,9.52-27.76,17.09-16.19,15.19-28.7,33.25-39.65,52.35-36.93,64.35-62.95,133.02-78.87,205.36-9.56,43.47-17.22,87.36-26.19,130.96-4.48,21.78-9.38,43.52-15.25,64.96-3.98,14.53-11.52,27.6-22.57,38.27-20.86,20.14-47.58,16.8-63-7.76-7.94-12.65-10.7-26.86-11.78-41.32-3.64-48.75-7.06-97.52-10.18-146.31-2.63-41.17-4.21-82.41-7.16-123.56-3.15-43.94-6.81-87.91-17.87-130.75-3.13-12.13-8.04-23.89-13.04-35.42-2.17-5.01-6.1-9.59-10.13-13.42-9.04-8.6-20.78-8.73-29.42.24-5.33,5.53-9.84,12.21-13.32,19.07-10.31,20.32-15.47,42.39-20.06,64.53-9.4,45.33-14.41,91.25-18.21,137.34-7.21,87.3-9.36,174.77-8.61,262.32.17,19.97,1.21,39.96.49,59.89-.37,10.11-2.86,20.4-6.05,30.07-3.56,10.78-11.78,17.3-23.46,19.2-8.04,1.31-14.61-.91-18.3-7.95-4.21-8.03-8.56-16.39-10.52-25.13-5.07-22.67-9.72-45.5-12.97-68.49-7.58-53.48-13.88-107.14-21.48-160.62-2.4-16.88-7.02-33.47-11.08-50.08-4.88-19.99-16.11-37.08-25.87-54.83-2.23-4.05-4.55-8.18-5.93-12.55-2.84-8.99,1.41-14.42,10.74-14.2,9.07.21,16.69,4.35,23.61,9.7,14.53,11.24,23.5,26.56,30.49,43.12,10.12,23.98,14.64,49.3,17.09,75.05.91,9.57,1.64,19.16,2.45,28.73.14,0,.27,0,.41-.01Z"/><path class="cls-1" d="m1182.09,532.23c4.53-11.35,8.74-22.85,13.64-34.04,21.09-48.21,48.65-92.03,88.21-127.45,22.11-19.79,46.78-35.2,76.25-41.61,12.76-2.77,25.66-3.79,38.68-1.86,30.22,4.48,42.48,27.02,40.95,54.28-.71,12.59-4.12,24.49-9.28,36-10.67,23.8-21.61,47.47-28.5,72.78-9.23,33.95-11.34,68.42-9.13,103.36,1.08,17.09,1.77,34.21,2.3,51.33.13,4.42-.93,8.9-1.63,13.32-1.59,10.09-8.15,15.24-17.67,17.09-9.11,1.77-15.93-2.26-21.09-9.34-8.17-11.22-10.93-24.41-13.3-37.72-5.05-28.49-.51-56.44,5.69-84.05,8.32-37.1,17.99-73.9,26.54-110.96,1.83-7.94,2.32-16.5,1.66-24.63-.92-11.2-8.69-17.48-20.02-17.38-15.78.14-29.98,6.09-41.67,15.91-10.34,8.68-19.51,19.08-27.83,29.79-26.96,34.73-46.32,73.76-61.31,114.84-10.29,28.22-18.88,57.07-27.96,85.72-5.37,16.96-18.88,22.5-34.26,13.48-9.98-5.86-15.95-14.83-19.36-25.68-5.98-18.99-8.09-38.66-10.36-58.31-.54-4.71-1.03-9.43-1.71-15.66-1.92,2.59-2.95,3.98-3.98,5.37-31.71,43.13-71.2,76.65-120.93,97.43-19.01,7.94-38.76,13.31-59.4,14.21-41.04,1.79-74.18-11.72-93.95-50.04-.15-.28-.42-.5-1.08-1.26-1.89,2.07-3.75,4.07-5.56,6.12-14.3,16.18-29.86,30.91-49.11,41.15-15.66,8.33-32.14,12.91-50,8.96-18.43-4.09-31.8-15.49-42.34-30.49-15.22-21.65-23.83-46.08-27.56-72-11.01-76.53,2.39-149.25,35.76-218.58,3.08-6.41,6.88-12.58,11.05-18.34,11.01-15.23,31.86-19.75,48.73-10.99,17.08,8.86,25.07,28.56,19.07,46.59-10.55,31.67-21.88,63.11-31.27,95.12-11.52,39.3-17.13,79.66-14.64,120.73.73,12.02,3.58,23.92,5.71,35.83.52,2.89,1.87,5.68,3.15,8.37,6.95,14.69,17.57,17.98,31.79,10.03,10.44-5.83,18.37-14.1,24.65-24.2,14.55-23.38,22.96-49.02,27.62-75.89,8.28-47.73,22.37-93.36,47.69-135.03,23.6-38.85,54.46-70.11,96.16-89.44,21.4-9.92,43.83-14.63,67.49-9.44,29.33,6.44,49.14,30.16,49.35,59.07.17,22.87-13.63,34.48-36.18,30.26-10.44-1.95-19.57-6.24-26.01-15.25-2.5-3.5-5.48-6.72-8.57-9.73-9.04-8.81-19.31-10.43-30.71-4.91-11.62,5.63-20.87,14.25-29.11,23.94-26.03,30.59-41.58,66.26-50.22,105.13-5.37,24.17-7.67,48.71-4.83,73.36,1.05,9.09,3.46,18.43,7.32,26.69,8.54,18.25,24.52,26.12,44.02,26.81,25.48.9,48.24-8.16,69.97-20.44,22.61-12.77,39.47-31.45,53.69-52.67,20.22-30.17,36.44-62.37,44.99-97.8,3.64-15.11,4.51-30.88,6.74-46.34,10.43-72.21,27.51-142.83,50.88-211.95,19.51-57.73,43.27-113.65,71.27-167.77,11.87-22.94,45.38-30.25,63.95-13.69,3.74,3.33,6.63,7.87,9.09,12.3,2.59,4.67,2.36,9.77.16,14.89-25.02,58.15-50.26,116.22-74.82,174.56-24.45,58.08-46.12,117.18-61.09,178.52-10.95,44.87-18.23,90.25-18.71,136.56-.02,1.64,0,3.28,0,4.92.3.04.61.08.91.12Z"/><path class="cls-1" d="m2244.65,549.86c1.89-8.17,2.76-16.76,5.91-24.41,5.91-14.39,19.48-22.17,34.09-21.21,9.58.63,15.29,5.69,17.19,15.02,2.57,12.61,2.35,24.69-5.11,35.97-4.4,6.65-2.27,13.9-.14,20.72,5.9,18.9,19.28,31.14,36.67,39.28,38.38,17.96,91.76,13.88,126.48-32.54,10.65-14.24,19.09-29.3,19.38-47.64.36-22.39-10.65-39.3-26.61-53.59-11.27-10.09-24.62-16.9-38.09-23.52-15.21-7.48-30.71-14.54-45.28-23.14-24.12-14.24-41.27-34.7-48.45-62.14-7.73-29.54,1.23-54.91,23.25-75.03,28.02-25.6,60.85-35.59,98.27-24.84,15.6,4.48,29.37,12.63,39.74,25.51,9.32,11.56,12.98,24.59,8.81,39.19-.85,2.98-2.28,5.94-4.08,8.47-6.19,8.71-16.27,8.53-22.32-.29-1.21-1.76-2.28-3.73-2.9-5.76-4.35-14.17-14.74-21.37-28.5-24.18-16.32-3.34-31.88-.57-46.14,7.95-18.33,10.95-23.38,29.74-12.27,47.98,4.23,6.95,9.9,13.76,16.48,18.42,17.91,12.65,36.5,24.36,55.11,36,22.47,14.06,44.73,28.34,63.39,47.44,14.86,15.21,27.09,32.1,32.12,53.14,7.54,31.5-1.12,59.36-21,83.9-25.83,31.87-59.93,50.2-99.96,57.35-56.65,10.12-104.91-7.59-145.54-46.8-19.74-19.04-29.29-43.25-29.2-70.92-.43-.11-.87-.22-1.3-.32Z"/><path class="cls-1" d="m808.44,195.25c4.59.66,9.28.92,13.75,2.06,17.61,4.52,26.58,20,23.23,40.02-3.32,19.83-27.87,47.37-48.99,50.48-14.34,2.12-29.5-5.26-35.42-18.54-17.59-39.44,17.79-76.04,47.43-74.03Z"/><path class="cls-1" d="m2524.68,294.53c-10.85-.04-20.15-9.17-20.26-19.88-.11-10.82,9.41-20.17,20.5-20.13,11.28.04,19.85,8.6,19.91,19.87.06,11.49-8.64,20.19-20.15,20.15Zm-15.1-20c0,9.4,6.43,16.35,15.14,16.39,9.06.04,15.03-6.32,15.18-16.18.15-9.98-6-16.71-15.21-16.64-8.71.07-15.11,7.03-15.1,16.43Z"/><path class="cls-1" d="m2522.04,277.57c-.14,2.21-.29,4.49-.46,7.03-3.01,1.26-4.95,1.01-4.79-3.04.09-2.15,0-4.31,0-6.47,0-9.93,2.66-12.11,12.58-9.5,1.42.37,3.48,4.21,2.95,5.11-2.78,4.76.96,8.58,1.14,12.82.01.33,0,.65,0,1.19-3.8,1.76-4.45-1.6-5.23-3.73-1.11-3.01-2.67-4.42-6.21-3.41Zm0-3.42c2.64-1,4.57-1.6,6.34-2.52.3-.16.17-2.3-.27-2.51-1.75-.87-3.69-1.33-6.07-2.12v7.16Z"/></g></svg>