<?xml version="1.0" encoding="UTF-8"?><svg id="Layer_2" xmlns="http://www.w3.org/2000/svg" viewBox="0 0 798.67 1259.77"><defs><style>.cls-1{fill:#fff;stroke-width:0px;}</style></defs><g id="Layer_1-2"><path class="cls-1" d="m614.43,194.41c-79.55-8.12-159.7-15.27-239.72-10.78-79.55,4.46-159.47,20.74-229.58,59.96-34.48,19.29-74.99,45.31-78.97,88.46-3.81,41.31,32.6,72.53,64.16,92.17,74.21,46.16,156.25,81.49,239.97,106.23,42.61,12.59,86.06,21.35,129.48,30.59,22.01,4.68,43.98,9.62,65.67,15.64,10.66,2.96,21.25,6.17,31.72,9.74,4.94,1.68,9.86,3.45,14.75,5.3,2.59.98,5.17,1.99,7.74,3.02,1.14.46,2.28.92,3.42,1.39,5.5,2.25-2.36-1.08,2.22.94,16.58,7.29,32.6,15.74,47.75,25.69,3.79,2.49,7.53,5.07,11.2,7.73,1.63,1.18,3.24,2.39,4.85,3.6,3.89,2.91-1.73-1.45.56.44.97.8,1.97,1.56,2.94,2.35,7.17,5.83,14.04,12.03,20.53,18.62,2.96,3,5.84,6.08,8.63,9.24,1.47,1.67,2.92,3.35,4.34,5.06.63.76,1.25,1.52,1.87,2.29.32.4,3.16,4.07,1.8,2.26s.51.71.82,1.13c.73.99,1.45,1.98,2.16,2.98,1.14,1.6,2.25,3.21,3.34,4.84,2.58,3.86,5.02,7.82,7.31,11.86,2.05,3.61,3.97,7.29,5.76,11.03.95,1.98,1.84,3.99,2.73,6,1.19,2.67-1.49-3.96.17.48.51,1.38,1.07,2.74,1.58,4.12,3.11,8.46,5.54,17.18,7.22,26.04.39,2.06.69,4.14,1.05,6.21-.62-3.53-.1-.83-.01-.07.14,1.3.29,2.6.41,3.9.47,4.94.71,9.9.74,14.86.03,4.44-.13,8.88-.44,13.3-.17,2.35-.38,4.69-.63,7.03-.11,1.04-.24,2.08-.37,3.12.52-4.2-.18.99-.26,1.47-1.51,9.34-3.73,18.56-6.57,27.59-1.43,4.54-3.01,9.02-4.75,13.45-.39.99-.78,1.97-1.18,2.95-.24.6-1.41,3.11-.05.13-1.1,2.42-2.16,4.84-3.31,7.24-4.14,8.63-8.83,16.99-14.03,25.01-2.6,4.01-5.33,7.95-8.18,11.79-.63.85-1.27,1.7-1.92,2.55,1.92-2.52.24-.32-.15.15-1.68,2.05-3.34,4.11-5.06,6.13-6.48,7.57-13.47,14.69-20.82,21.41-3.41,3.11-6.9,6.13-10.46,9.06-.84.69-1.68,1.37-2.53,2.05.19-.15-3.99,3.15-2.03,1.62,1.63-1.27-1.06.8-1.43,1.07-1.3.98-2.61,1.94-3.93,2.9-16.09,11.67-33.36,21.67-51.3,30.21-4.2,2-8.47,3.85-12.71,5.76-2.59,1.17,2.36-.96-.27.12-1.27.52-2.53,1.05-3.8,1.56-2.54,1.03-5.09,2.03-7.65,3.01-9.22,3.52-18.57,6.71-28.01,9.6-17.98,5.52-36.29,9.97-54.77,13.43-4.46.83-8.94,1.61-13.42,2.32-1.99.32-3.99.62-5.98.92-1,.15-2,.28-2.99.43-4.29.64,2.69-.33-1.25.18-9,1.15-18.02,2.1-27.07,2.81-36.45,2.84-73.17,1.91-109.46-2.55-1.07-.13-7.75-1.05-3.51-.44-2-.29-4-.56-6-.86-4.99-.74-9.98-1.55-14.95-2.43-8.95-1.58-17.86-3.37-26.73-5.38-17.73-4.01-35.27-8.87-52.54-14.55-8.63-2.84-17.2-5.89-25.69-9.14-4.24-1.63-8.47-3.3-12.67-5.03-1.15-.47-6.11-2.58-2.72-1.12-2.32-1-4.64-1.99-6.95-3.02-16.84-7.45-33.32-15.72-49.36-24.78-15.8-8.94-31.16-18.65-45.99-29.11-3.5-2.47-6.97-4.98-10.41-7.53-1.82-1.35-3.63-2.71-5.44-4.09-.71-.54-3.41-2.64-.58-.43-1.19-.93-2.38-1.86-3.57-2.8-7.12-5.63-14.09-11.44-20.9-17.43-13.27-11.67-25.92-24.02-37.93-36.98-6.37-6.87-18.9-6.92-25.26,0-6.75,7.35-6.79,17.93,0,25.26,50.54,54.52,112.8,98.3,180.71,128.43s143.72,48.41,219.48,50.99c76.96,2.63,155.3-10.53,225.95-41.54,74.37-32.64,138.85-91.8,160.42-172.19,10.25-38.2,9.78-79.73-4.6-116.83-13.84-35.7-37.51-66.59-66.87-91.01-30.97-25.77-66.19-44.42-103.95-58.2-42.02-15.33-85.95-24.39-129.64-33.52-43.58-9.11-86.82-19.12-129.24-32.75-20.65-6.64-41.08-13.95-61.25-21.92-5.04-1.99-10.07-4.03-15.08-6.1-.47-.19-6.67-2.8-4.07-1.69-3.05-1.29-6.09-2.61-9.13-3.93-9.94-4.34-19.81-8.84-29.6-13.5-19.86-9.45-39.4-19.55-58.59-30.29-9.46-5.3-18.85-10.73-28.12-16.36-3.82-2.32-7.6-4.71-11.3-7.22-1.68-1.14-3.34-2.29-4.98-3.48-1.03-.74-2.04-1.53-3.07-2.26-1.69-1.19,1.97,1.64-.62-.47-7.25-5.91-13.72-12.25-19.87-19.29-1.72-1.97,1.59,2.33.14.17-.67-.99-1.4-1.94-2.06-2.93-1.05-1.57-2.04-3.17-2.97-4.82-.46-.81-.9-1.63-1.33-2.46-.06-.11-2.09-4.21-.86-1.64s-.56-1.54-.62-1.71c-.38-1.08-.72-2.17-1.03-3.27-.09-.31-1.7-5.83-1.32-6.03.11-.06.27,3.61.17.63-.03-.93-.11-1.86-.12-2.79-.02-1.18.01-2.36.08-3.54.06-1.06.57-4.26-.1-.34.42-2.45.97-4.87,1.72-7.25.3-.94.68-1.85.97-2.79-.99,3.22-.48,1.03-.06.2,1-1.99,2.02-3.95,3.19-5.85s2.45-3.76,3.8-5.56c-.43.57-2.17,2.57.04.07,1.01-1.15,2-2.3,3.04-3.42,3.16-3.39,6.56-6.54,10.1-9.52.79-.67,1.6-1.31,2.4-1.97.5-.42,2.68-2.06.05-.07,2.05-1.55,4.12-3.06,6.23-4.53,7.92-5.53,16.12-10.68,24.47-15.54s17.3-9.61,26.21-13.92c4.07-1.97,8.18-3.86,12.31-5.69.97-.43,1.95-.85,2.92-1.28,4.68-2.07-2.01.8.87-.38,2.46-1,4.91-2.02,7.38-2.99,36.02-14.19,73.89-23.32,112.18-28.8-.12.02,5.13-.72,2.44-.35s2.57-.33,2.45-.32c2.15-.27,4.3-.54,6.45-.79,5.12-.6,10.25-1.14,15.38-1.63,9.78-.92,19.58-1.64,29.38-2.18,20.07-1.1,40.18-1.46,60.28-1.26,40.22.4,80.38,3,120.43,6.5,19.41,1.7,38.8,3.61,58.19,5.59,9.32.95,18.26-8.89,17.86-17.86-.47-10.49-7.87-16.84-17.86-17.86h0Z"/><path class="cls-1" d="m275.93,43.65v1200.87c0,20.31,31.56,20.34,31.56,0V43.65c0-20.31-31.56-20.34-31.56,0h0Z"/><path class="cls-1" d="m396.49,16.66v1198.11c0,9,7.66,16.66,16.66,16.66s16.66-7.63,16.66-16.66V16.66c0-9-7.66-16.66-16.66-16.66s-16.66,7.63-16.66,16.66h0Z"/></g></svg>