<?xml version="1.0" encoding="UTF-8"?><svg id="Layer_2" xmlns="http://www.w3.org/2000/svg" viewBox="0 0 1824.55 371.68"><defs><style>.cls-1{stroke-width:0px;}</style></defs><g id="Layer_1-2"><path class="cls-1" d="m371.66,185.94c-.1,102.57-83.38,185.76-185.94,185.73C83.15,371.65-.14,288.18,0,185.79.14,83.56,82.72-.06,185.81,0c102.81.06,185.95,83.41,185.85,185.94ZM185.71,61.82c-68.57.07-123.97,55.56-123.95,124.15.02,68.36,55.56,123.87,123.95,123.89,68.44.02,124-55.51,124.03-123.96.03-68.53-55.57-124.15-124.04-124.08Z"/><path class="cls-1" d="m1356.86,154.2c-17.07,0-33.7.08-50.33-.17-1.18-.02-2.92-2.24-3.4-3.75-6.93-21.79-21.4-35.09-44.18-37.98-32.8-4.16-58.61,11.15-70,42.15-11.02,29.99-11.19,60.45,1.19,90.18,11.75,28.22,37.55,42.41,67.9,39.01,16.17-1.81,30.49-6.89,40.7-20.31,7.57-9.96,10.93-21.43,11.92-34.22h-55.38c-.24-1.48-.56-2.58-.57-3.69-.04-11.16-.02-22.32-.03-33.48,0-2.24-.19-4.33,3.17-4.33,33.81.08,67.61.09,101.42.13.47,0,.93.29,1.6.51v136.38c-11.07,0-22.01.08-32.95-.15-.95-.02-2.4-1.98-2.69-3.25-1.81-8.1-3.36-16.26-5.17-25.22-1.55,1.72-2.62,2.88-3.66,4.07-19.83,22.63-44.81,32.32-74.73,30.34-29.79-1.97-56.21-11.77-77.8-32.84-20.14-19.65-31.32-44-35.81-71.51-5.1-31.27-2.58-61.91,10.57-90.93,18.39-40.59,50.2-63.63,94.46-69,32.16-3.9,62,2.23,88.12,22.3,20.43,15.69,34.52,41.76,35.65,65.73Z"/><path class="cls-1" d="m1105.19,324.68c-18.13,0-35.26.09-52.39-.17-1.42-.02-3.79-2.26-4.06-3.78-2-10.94-3.71-21.94-5.24-32.96-1.49-10.7-1.97-21.58-4.11-32.14-4-19.68-13.97-28.67-33.89-29.64-19.61-.96-39.28-.41-58.93-.65-3.32-.04-3.8,1.56-3.78,4.29.08,10.66.03,21.32.03,31.98,0,18.82,0,37.64,0,56.46,0,1.97,0,3.93,0,6.25h-55.08V71.59c1.11-.13,2.36-.42,3.62-.42,45.46,0,90.93-.35,136.39.18,24.13.28,44.8,9.53,58.34,30.17,16.32,24.86,16.12,51.15,2.86,77.29-5.43,10.7-14.76,17.87-25.43,23.2-1.62.81-3.27,1.58-5.07,2.45.38.55.56,1.13.89,1.23,19.9,6.16,29.23,21.32,32.78,40.35,2.34,12.54,2.88,25.43,3.9,38.18,1.09,13.62,2.13,27.2,9.2,40.45Zm-161.48-210.53c-.42.85-.69,1.14-.69,1.43-.08,22.46-.18,44.92-.04,67.38,0,1.01,2.16,2.88,3.31,2.88,22.28-.06,44.59.22,66.84-.76,16.28-.72,25.92-10.17,28.55-26.22.88-5.35,1.04-11,.41-16.38-1.86-15.9-11.18-25.14-26.98-27.38-3.94-.56-7.94-.88-11.91-.9-18.13-.09-36.27-.04-54.4-.04h-5.07Z"/><path class="cls-1" d="m1399.66,71.36h188.89v46.34h-133.24v54.34h122.21v43.3h-122.17v62.64h136.09v46.27h-191.78V71.36Z"/><path class="cls-1" d="m864.66,324.69c-7.42,0-14.2,0-20.98,0-10.32,0-20.66-.25-30.97.12-4.37.16-5.99-1.5-7.26-5.41-5.12-15.81-10.65-31.49-15.87-47.28-.98-2.95-2.3-4.14-5.59-4.13-28.97.14-57.95.14-86.92,0-3.36-.02-4.55,1.37-5.54,4.23-5.58,16.19-11.34,32.31-16.98,48.48-.81,2.31-1.49,4.09-4.64,4.06-16.82-.17-33.63-.1-50.45-.13-.47,0-.94-.23-2.03-.51.55-1.75.98-3.43,1.6-5.05,30.66-80.83,61.37-161.65,91.89-242.54,1.65-4.38,3.78-5.57,8.23-5.48,15.65.28,31.3.17,46.96.06,2.82-.02,4.39.61,5.48,3.54,30.71,82.41,61.52,164.78,92.31,247.16.23.6.34,1.25.76,2.89Zm-123.01-191.08c-.35,0-.7,0-1.05,0-10.93,30.84-21.86,61.68-32.87,92.77h65.77c-10.76-31.33-21.3-62.05-31.84-92.76Z"/><path class="cls-1" d="m564.79,324.72h-21.04c-9.82,0-19.66-.29-29.47.12-4.96.21-5.21-2.09-5.2-5.95.08-64.62.06-129.24.06-193.85v-7.22c-2.32,0-4.24,0-6.16,0-21.65,0-43.29-.1-64.94.09-3.97.03-5.11-1.14-5.05-5.08.22-13.63.09-27.26.09-41.28h207.25v46.14h-75.53v207.04Z"/><path class="cls-1" d="m1824.53,71.52c0,14.68-.03,28.97.02,43.26.01,3.91-2.79,3.01-4.93,3.01-21.48.04-42.96.03-64.44.03h-6.7v206.6h-55.49V117.89h-75.84v-46.37h207.37Z"/><path class="cls-1" d="m185.75,249.52c-35.07.02-63.61-28.51-63.63-63.59-.01-35.17,28.43-63.73,63.47-63.74,35.33,0,63.84,28.42,63.85,63.65,0,35.14-28.51,63.66-63.7,63.68Z"/></g></svg>