<?xml version="1.0" encoding="UTF-8"?><svg id="Layer_2" xmlns="http://www.w3.org/2000/svg" viewBox="0 0 2552.4 611.01"><defs><style>.cls-1{stroke-width:0px;}</style></defs><g id="Layer_1-2"><path class="cls-1" d="m458.5,129.47c-1.77,6.7-3.54,13.25-5.24,19.81-6.85,26.45-13.53,52.94-20.56,79.33-6.91,25.93-14.33,51.72-21.22,77.66-8.9,33.51-17.46,67.11-26.25,100.64-3.16,12.07-6.69,24.05-9.8,36.13-3.15,12.23-6.1,24.51-8.91,36.82-.87,3.82-2.64,5.11-6.65,5.24-9.39.29-18.77,1.93-28.13,1.74-7.77-.16-16-.86-23.14-3.62-13.3-5.14-22.76-15.33-27.9-28.6-3.87-9.98-6.89-20.39-9.18-30.85-11.38-52.08-22.63-104.18-33.42-156.39-3.48-16.84-5.4-34.01-8-50.88-.09.13-.76.71-.86,1.38-7.59,47.34-20.51,93.47-32.04,139.91-10.04,40.45-19.89,80.95-29.63,121.47-1.02,4.24-2.62,5.79-7.15,5.87-7.5.13-14.99,1.86-22.48,1.79-8.68-.08-17.59-.34-25.95-2.38-10.73-2.62-19-9.33-24.84-19.19-14.72-24.87-17.79-53.31-25.37-80.36-3.46-12.34-6.34-24.84-9.37-37.3-8.86-36.53-17.63-73.08-26.5-109.61-3.1-12.79-6.46-25.52-9.53-38.32-5.3-22.08-10.46-44.2-15.66-66.31-.3-1.28-.44-2.6-.72-4.37,2.1-.1,3.78-.24,5.46-.25,22.79-.02,45.57.1,68.36-.11,4.3-.04,5.87,1.27,6.64,5.49,5.66,30.91,11.48,61.8,17.45,92.66,8.12,41.96,16.59,83.85,24.56,125.83,3.09,16.26,5.21,32.71,7.79,49.07.13.82.4,1.61.94,3.7.81-2.03,1.32-2.92,1.52-3.87,8.64-40.1,16.92-80.28,25.97-120.29,11.16-49.32,23.01-98.49,34.4-147.76.88-3.81,2.54-4.83,6.24-4.8,22.61.15,45.23.14,67.84,0,3.63-.02,5.39.82,6.24,4.76,9.52,44.29,19.81,88.42,28.76,132.82,8.88,44.04,16.47,88.34,24.65,132.53.24,1.28.74,2.5,2.1,3.74.46-2.63.91-5.26,1.39-7.89,2.76-15.31,5.26-30.67,8.35-45.92,11.84-58.45,23.9-116.85,35.81-175.29,2.76-13.54,5.28-27.14,7.81-40.72.47-2.5,1.23-4,4.18-3.99,23.13.09,46.26.06,69.38.1.66,0,1.31.27,2.66.57Z"/><path class="cls-1" d="m824.72,217.9c2.1-.15,3.61-.35,5.12-.35,19.36-.02,38.72.07,58.08-.08,3.9-.03,5.43.96,5.31,5.17-.3,10.06-.1,20.14.52,30.9,18.67-28.5,44.95-42.24,78.54-41.81,34.39.44,59.3,15.96,74.3,48.09,3.78-4.62,7.5-8.54,10.5-12.95,7.19-10.56,17.77-16.84,28.43-22.94,23.19-13.26,47.92-15.27,73.51-8.86,10.8,2.71,20.02,8.62,28.79,15.32,19.84,15.15,27.23,37.1,32,60.02,2.45,11.79,3.24,24.1,3.32,36.18.35,50.48.09,100.96.25,151.44.02,4.81-1.17,6.56-6.25,6.49-19.87-.26-39.75-.26-59.61,0-5.05.07-6.29-1.61-6.28-6.46.16-46.03.14-92.06.06-138.09-.02-13.72-.84-27.38-6.09-40.33-5.89-14.53-14.52-26.04-31.54-28.1-19.33-2.33-37.03,6.54-46.61,23.5-4.17,7.38-6.5,15.19-6.47,23.93.2,52.88.1,105.75.1,158.63,0,6.79-.01,6.82-6.67,6.82-20.04.01-40.09-.12-60.13.1-4.75.05-6.01-1.48-6-6.15.16-51.16.1-102.33.09-153.49,0-12.61-3.15-24.43-9.75-35.14-12.77-20.7-42.5-25.45-60.41-8.9-12.46,11.51-20.84,25.67-20.82,43.6.06,50.65-.04,101.3-.07,151.95q0,8.03-8.13,8.04c-19.53,0-39.06-.11-58.59.08-4.44.04-5.84-1.24-5.84-5.81.13-85.22.09-170.44.1-255.65,0-1.52.13-3.05.23-5.13Z"/><path class="cls-1" d="m1484.12,484.06c-15.03,3.89-29.81,4.84-44.46.73-7.91-2.22-14.53-6.89-18.82-14.14-2.93-4.94-5.49-10.1-9.91-16.63-.89,1.64-1.51,3.54-2.73,4.89-9.33,10.26-20.08,19.09-33.19,23.52-21.16,7.14-42.97,9.84-65.14,4.34-4.63-1.15-9.46-1.85-13.8-3.7-30.66-13.07-51.82-47.14-47.69-83.67,2.58-22.79,12.54-41.75,29.35-56.43,8.82-7.7,20.06-13.05,30.88-17.99,28.09-12.82,58.2-15.98,88.68-16.63,10.05-.21,10.13-.28,8.52-10.16-3.35-20.67-16.46-31.73-39.55-34.04-15.39-1.54-30.34.56-45.36,3.59-13.91,2.81-26.78,8.01-39.76,15.43-4.48-16.3-8.8-32.02-13.49-49.11,12.96-4.76,25.79-10.34,39.11-14.2,33.26-9.63,67.12-12.33,100.91-3.4,11.04,2.92,21.77,8.28,31.6,14.25,24.24,14.73,33.87,38.88,38.65,65.25,1.91,10.53,2.24,21.43,2.37,32.17.47,38.84.35,77.69.92,116.53.17,11.42,1.9,22.82,2.86,34.23.15,1.81.02,3.64.02,5.17Zm-75.49-106.68h.03c0-5.3-.24-10.61.07-15.89.27-4.53-.97-6.57-5.93-6.09-7.48.72-15.05.54-22.51,1.42-17.7,2.07-34.6,6.19-48.28,18.91-10.67,9.92-12.11,22.36-9.69,35.32,2.37,12.68,10.53,21.06,23.17,24.95,29.92,9.22,64.87-16.97,63.17-46.32-.24-4.09-.03-8.2-.03-12.3Z"/><path class="cls-1" d="m602.22,454.59c-1.62,1.51-2.72,2.31-3.53,3.33-14.33,18.03-33.64,26.81-55.91,30.1-16.1,2.38-31.96,1.72-47.85-2.35-21.3-5.46-37.15-18.47-46.77-37.11-12.08-23.41-12.71-48.34-3.11-73.53,4.86-12.76,11.94-23.67,22.49-31.74,13.3-10.18,27.77-18.49,44.06-23.59,24.42-7.64,49.39-10.88,74.84-11.33q10.33-.18,8.91-10.71c-1.57-11.51-5.53-22.01-16.73-27.06-7.2-3.25-15.25-5.09-23.11-6.31-14.58-2.27-28.91.41-43.28,3.21-13.44,2.62-26.02,6.97-37.66,14.13-.68.42-1.51.62-2.77,1.11-2.13-6.74-4.24-13.19-6.2-19.69-2.47-8.18-4.72-16.43-7.26-24.59-.91-2.93-.35-3.94,2.76-5.02,14.35-4.98,28.25-11.5,42.86-15.43,27.73-7.46,56.1-9.15,84.49-3.87,15.19,2.83,29.24,8.39,42.37,17.26,15.43,10.42,25.9,24.51,31.37,41.26,4.76,14.56,7.02,30.41,7.54,45.79,1.11,32.64-.09,65.36.56,98.03.43,21.51,2.42,42.98,3.7,64.47.06,1.01,0,2.02,0,3.3-16.46,3.51-32.83,5.79-48.69-1.5-9.88-4.54-16.32-12.79-20.69-22.64-.68-1.53-1.33-3.07-2.39-5.53Zm-3.91-77.76c0-5.81-.08-11.63.04-17.43.06-2.79-.91-3.98-3.83-3.98-19.29.04-38.27,1.86-56.28,9.43-14.83,6.23-24.35,16.6-26.17,33.18-1.48,13.49,5.16,28.95,15.28,34.71,20.47,11.67,53.87,1.37,65.03-19.48,6.24-11.66,6.2-23.93,5.93-36.42Z"/><path class="cls-1" d="m1703.11,128.83c3.45,0,6.34,0,9.24,0,18.5,0,37.01.18,55.51-.12,5.09-.08,6.25,1.61,6.21,6.42-.23,23.96.04,47.92-.22,71.87-.05,5.05,1.53,6.32,6.4,6.23,16.61-.28,33.24-.11,49.85-.11,1.86,0,3.73,0,6.04,0,.18,2.04.44,3.7.44,5.35.03,18.82-.11,37.65.11,56.47.06,4.59-1.45,5.77-5.9,5.71-17.3-.24-34.61,0-51.91-.17-3.84-.04-5.01,1.21-4.99,5,.19,34.74.19,69.48.3,104.22.03,10.25,2.14,20.08,7.49,28.91,3.81,6.29,10.16,9.68,17.15,9.91,9.85.33,19.74-.72,29.62-1.22,1.5-.08,2.98-.43,4.88-.71.22,1.66.53,2.95.55,4.24.32,15.57.43,31.14,1,46.7.16,4.35-1.34,6.21-5.41,6.87-25.2,4.05-50.23,8.24-75.75,1.03-21.35-6.03-36.01-19.42-43.27-39.47-5.98-16.5-7.68-34.3-7.68-52.02-.02-86.59-.02-173.19-.02-259.78,0-1.51.19-3.02.35-5.35Z"/><path class="cls-1" d="m782.02,129.19c0,2.36,0,4.37,0,6.37,0,113.93,0,227.86,0,341.78q0,6.9-7.06,6.92c-19.52,0-39.05-.1-58.57.08-4.41.04-6.3-.86-6.29-5.88.14-114.61.13-229.22.03-343.84,0-4.33.97-5.95,5.67-5.89,20.21.26,40.42.1,60.62.12,1.66,0,3.32.2,5.6.34Z"/><path class="cls-1" d="m1672.53,281.91c-8.35-.45-16.01-1.26-23.66-1.2-31.13.24-54.33,21.36-57.61,52.3-.63,5.94-.95,11.94-.96,17.91-.08,42.26-.04,84.52-.05,126.78,0,6.67-.02,6.69-6.82,6.7-20.21.01-40.43-.13-60.64.1-4.95.05-6.87-1.1-6.86-6.52.16-84.86.14-169.73.03-254.59,0-4.37,1.12-6.01,5.75-5.95,17.98.23,35.97.09,53.95.11,1.51,0,3.02.21,5.33.38v50.01c.52.14,1.04.29,1.56.43.87-1.63,1.68-3.3,2.63-4.88,5.79-9.63,10.06-20.8,17.77-28.52,14.69-14.72,32.83-23.84,54.64-23.29,14.91.38,14.92.2,14.92,14.94,0,16.6,0,33.19,0,49.79,0,1.83,0,3.66,0,5.5Z"/><path class="cls-1" d="m2500.89,178.76c.24,12.46-5.19,20.8-16.84,26.02-18.57,8.32-36.71,17.62-55.13,26.29-7.72,3.63-15.81,6.46-23.53,10.1-18.11,8.53-36.05,17.41-54.15,25.94-3.34,1.58-7.09,2.78-10.75,3.11-7.56.68-14.37-.74-19.66-7.33-6.21-7.74-10.65-15.94-10.44-26.04.12-6.1,2.4-11.14,7.7-14.84,10.38-7.24,20.47-14.89,30.83-22.16,13.84-9.71,27.87-19.14,41.71-28.84,17.91-12.54,35.8-25.09,53.53-37.88,8.05-5.81,16.21-6.4,25.15-2.54,17.33,7.48,31.59,29.09,31.58,48.19Z"/><path class="cls-1" d="m2500.91,432.08c0,20.38-14.94,41.97-33.93,49.07-7.59,2.84-14.76,2.29-21.44-2.51-11.67-8.38-23.26-16.87-35.02-25.13-15.23-10.7-30.63-21.17-45.88-31.85-15.24-10.67-30.26-21.65-45.62-32.14-7.36-5.03-9.5-11.88-8.48-20.01,1.29-10.31,6.4-19.13,14.35-25.29,7.62-5.91,16.87-4.77,25.35-.78,20.89,9.85,41.61,20.06,62.52,29.87,15.77,7.4,31.77,14.31,47.59,21.6,9.32,4.29,18.51,8.87,27.73,13.39,9.93,4.86,12.77,13.59,12.83,23.79Z"/><path class="cls-1" d="m2144.52,239c-.81,8.66-3.08,17.03-9.7,24.18-7.76,8.37-21.11,8.28-28.85,4.55-23.59-11.36-47.3-22.46-71.03-33.54-21.22-9.91-42.36-20.02-63.85-29.34-12.12-5.25-16.71-14.73-16.04-26.52,1.05-18.61,8.54-34.44,24.9-44.76,11.6-7.32,21.66-7.57,32.29.64,10.96,8.47,22.36,16.38,33.7,24.33,17.77,12.46,35.64,24.77,53.49,37.12,11.94,8.26,23.71,16.78,35.91,24.63,6.94,4.47,9.15,10.59,9.17,18.71Z"/><path class="cls-1" d="m2144.54,370.74c-.09,9.36-2.32,15.31-8.98,19.77-18.33,12.27-36.38,24.95-54.45,37.58-23.53,16.45-47.08,32.87-70.42,49.58-8.31,5.95-16.77,6.54-25.61,2.31-10.98-5.25-19.12-13.19-24.13-24.67-4.2-9.64-7.12-19.16-5.34-29.73,1.43-8.45,5.4-14.76,13.54-18.5,19.58-9.01,38.99-18.42,58.51-27.55,26.48-12.4,52.84-25.1,79.6-36.87,15.39-6.77,28.5.98,34.55,16.02,1.75,4.36,2.13,9.27,2.73,12.06Z"/><path class="cls-1" d="m2269.13,27.23c-2.3,24.86-4.31,46.28-6.26,67.7-1.55,17-3.02,34.01-4.58,51.01-1.29,14.11-2.35,28.25-4.22,42.28-.46,3.47-2.97,7.47-5.76,9.7-12.05,9.6-32.53,8.68-43.67-1.84-2.16-2.04-3.78-5.54-4.08-8.52-2.37-23.44-4.31-46.92-6.48-70.38-2.24-24.31-4.58-48.6-6.87-72.91-.45-4.76-.86-9.52-1.23-14.29-.45-5.74,1.24-10.65,5.2-15,10.5-11.51,24.01-15.32,38.91-14.96,10.84.26,20.9,3.53,29.32,10.71,6.09,5.19,10.7,11.18,9.72,16.5Z"/><path class="cls-1" d="m2268.9,582.6c1.27,6.25-3.13,12.03-8.86,17.06-19.42,17.03-53.5,14.63-69.79-5.35-2.72-3.33-4.18-8.77-4.03-13.15.44-12.43,1.99-24.83,3.14-37.24,1.57-17,3.21-33.99,4.76-50.99,2.13-23.29,4.05-46.6,6.39-69.87.98-9.75,9.4-12.7,16.86-15.19,9.98-3.32,19.89-1.58,29.17,3.64,6.99,3.93,7.99,10.52,8.62,17.49,3.01,33.32,6.1,66.64,9.11,99.96,1.55,17.17,2.97,34.36,4.63,53.64Z"/><path class="cls-1" d="m2552.4,464.22c-.07,9.92-7.83,17.66-17.59,17.53-9.94-.13-17.94-8.33-17.74-18.18.19-9.54,7.64-16.18,18.11-16.16,10.56.03,17.29,6.61,17.22,16.81Zm-3.49-.48c-.04-8.31-6.08-14.86-13.75-14.89-8.01-.04-14.77,7.09-14.59,15.39.17,8.1,6.83,14.96,14.58,15.01,7.59.05,13.81-6.95,13.77-15.51Z"/><path class="cls-1" d="m2542.11,472.67c-3.53-2.92-5.91-4.89-8.3-6.87-1.02,1.96-2.05,3.91-3.03,5.8-1.9-2.14-2.73-14.57-.62-15.04,3.23-.72,7.39-.95,10.07.54,3.7,2.06.8,4.86-1.02,6.65.93,2.88,1.79,5.52,2.9,8.92Zm-7.03-7.22c1.67-2.55,3.24-3.91,3.21-5.23-.03-1.02-2.05-2.72-3.21-2.75-.98-.02-2.66,1.83-2.83,3.03-.16,1.09,1.29,2.42,2.83,4.95Z"/></g></svg>