<?xml version="1.0" standalone="no"?>
<!DOCTYPE svg PUBLIC "-//W3C//DTD SVG 20010904//EN"
 "http://www.w3.org/TR/2001/REC-SVG-20010904/DTD/svg10.dtd">
<svg version="1.0" xmlns="http://www.w3.org/2000/svg"
 width="1288.000000pt" height="1288.000000pt" viewBox="0 0 1288.000000 1288.000000"
 preserveAspectRatio="xMidYMid meet">
<metadata>
Created by potrace 1.14, written by Peter Selinger 2001-2017
</metadata>
<g transform="translate(0.000000,1288.000000) scale(0.100000,-0.100000)"
fill="#000000" stroke="none">
<path d="M4469 10830 c-1 -3 -2 -1975 -3 -4382 -1 -4230 -1 -4378 17 -4378 10
0 26 4 35 9 9 5 31 11 47 14 17 3 75 18 130 32 55 15 107 28 115 30 47 12 237
67 310 89 47 14 92 28 100 30 8 2 27 9 43 15 15 6 27 8 27 5 0 -2 9 0 21 6 11
6 28 13 37 15 9 2 71 23 137 45 66 23 125 42 130 43 6 1 12 4 15 7 3 3 37 16
75 29 39 13 81 29 95 34 14 6 27 11 30 12 3 1 14 5 25 10 11 4 65 26 120 48
55 22 127 52 160 67 33 15 77 33 98 41 20 7 37 16 37 19 0 4 6 7 13 7 18 1
311 143 318 155 3 5 8 8 10 7 6 -5 119 53 119 61 0 3 6 7 13 7 6 0 54 24 105
54 51 30 100 59 110 64 59 33 178 110 180 117 2 4 8 8 13 8 8 0 97 57 109 70
3 3 37 28 75 55 39 27 72 52 75 55 3 3 23 19 45 36 22 16 55 43 73 59 19 17
40 33 47 37 16 10 125 111 216 201 72 71 207 227 249 287 13 19 27 37 30 40
11 10 50 69 50 76 0 4 6 15 14 23 32 36 117 198 160 305 48 119 103 314 101
360 0 14 2 26 5 26 3 0 7 10 8 23 1 12 3 591 5 1285 2 1218 2 1264 -16 1274
-10 5 -25 7 -32 4 -7 -2 -16 -2 -19 2 -4 3 -14 7 -24 8 -74 11 -121 18 -179
29 -16 3 -44 8 -63 10 -19 3 -55 10 -80 14 -25 5 -52 9 -60 9 -8 0 -26 3 -40
6 -13 3 -42 8 -65 11 -22 3 -47 8 -55 10 -8 2 -31 6 -50 9 -19 3 -44 7 -55 10
-23 4 -168 27 -202 31 -11 2 -29 5 -40 9 -10 3 -38 8 -63 11 -55 8 -76 11
-215 35 -60 10 -123 21 -140 24 -16 3 -41 7 -55 10 -21 4 -87 15 -197 32 -15
3 -39 6 -53 8 -14 2 -25 5 -25 6 0 1 -9 3 -20 4 -127 17 -277 44 -284 52 -3 3
-7 702 -7 1552 -1 851 -2 1554 -3 1562 -1 13 -114 15 -951 15 -523 0 -951 -2
-951 -5z"/>
<path d="M1887 7784 c-1 -1 -56 -5 -122 -8 -66 -4 -132 -8 -145 -11 -13 -3
-42 -7 -65 -10 -35 -5 -70 -11 -182 -31 -53 -9 -240 -63 -283 -81 -8 -3 -17
-7 -20 -8 -3 -1 -18 -7 -33 -13 -16 -7 -30 -12 -33 -12 -7 0 -159 -74 -164
-81 -3 -3 -13 -8 -22 -12 -21 -8 -167 -105 -186 -124 -7 -7 -17 -13 -21 -13
-26 0 -311 -310 -311 -339 0 -4 -8 -16 -18 -27 -9 -11 -22 -29 -28 -40 -20
-37 -62 -119 -68 -134 -3 -8 -10 -22 -15 -30 -6 -8 -21 -44 -34 -80 -13 -36
-28 -74 -32 -85 -4 -11 -9 -24 -10 -30 -2 -5 -8 -30 -15 -55 -7 -25 -14 -53
-16 -62 -2 -10 -7 -28 -10 -40 -3 -13 -7 -34 -9 -48 -2 -14 -4 -25 -5 -25 -4
0 -17 -90 -28 -190 -10 -96 -9 -2475 1 -2550 5 -33 10 -69 12 -80 3 -11 7 -36
10 -55 6 -46 10 -63 30 -139 9 -36 17 -73 18 -83 1 -10 6 -18 11 -18 5 0 7 -3
3 -6 -3 -4 0 -19 9 -35 8 -16 14 -30 14 -31 -8 -23 105 -252 176 -358 76 -113
89 -130 174 -218 186 -193 421 -339 696 -430 66 -22 139 -44 164 -50 114 -27
147 -34 180 -38 19 -2 46 -6 60 -9 24 -5 85 -12 185 -20 97 -9 545 -4 545 5 0
3 21 6 47 8 26 1 59 5 73 7 14 3 48 8 75 11 39 5 314 72 360 88 17 5 48 18 92
36 23 10 44 16 47 12 3 -3 6 0 6 6 0 7 6 12 14 12 27 0 199 97 296 168 80 59
217 191 265 257 16 22 31 42 34 45 4 3 22 30 42 60 67 105 158 311 174 396 2
10 4 19 5 19 3 0 13 46 24 108 2 12 7 29 10 37 3 8 8 38 11 65 3 28 8 70 12
95 4 25 7 239 7 475 l1 430 -772 2 -773 1 0 -51 c0 -331 -9 -860 -14 -887 -26
-134 -55 -196 -121 -262 -54 -53 -135 -82 -229 -80 -240 5 -346 154 -362 512
-9 178 -10 770 -2 770 4 0 5 7 1 16 -8 23 -9 224 -1 224 4 0 5 7 2 15 -9 22
-10 705 -2 705 4 0 5 7 1 16 -9 24 -9 224 0 224 5 0 5 5 1 11 -8 14 -8 493 1
599 7 86 10 111 19 160 4 19 8 42 9 50 8 50 55 147 93 189 59 65 122 90 239
92 152 4 281 -83 316 -210 6 -25 15 -50 18 -56 3 -5 6 -14 7 -20 1 -5 5 -26 9
-45 4 -19 9 -217 11 -439 3 -223 6 -407 9 -409 4 -4 1456 -6 1527 -3 14 1 16
12 15 74 0 40 3 78 7 85 4 7 3 12 -2 12 -7 0 -9 44 -2 60 1 3 1 10 0 15 -6 25
-2 223 4 233 4 7 3 12 -2 12 -7 0 -9 44 -2 60 1 3 2 9 1 14 -1 6 -4 64 -7 130
-4 106 -10 181 -14 181 -1 0 -3 14 -5 30 -10 81 -18 124 -41 213 -14 53 -29
106 -34 117 -5 11 -24 58 -42 105 -17 47 -35 87 -38 90 -3 3 -15 25 -28 50
-58 111 -192 271 -297 355 -27 22 -52 43 -55 46 -20 23 -252 159 -280 165 -3
0 -25 10 -50 21 -68 30 -224 80 -325 103 -84 20 -110 25 -175 34 -14 2 -43 6
-65 10 -78 12 -121 16 -230 22 -102 6 -325 11 -328 8z"/>
<path d="M10826 7782 c-2 -1 -45 -5 -97 -8 -82 -4 -134 -10 -134 -14 0 0 -28
-3 -61 -5 -34 -3 -73 -9 -87 -14 -14 -5 -27 -8 -30 -5 -2 2 -15 0 -28 -5 -13
-4 -43 -11 -67 -15 -23 -3 -51 -10 -62 -16 -11 -6 -20 -9 -20 -6 0 3 -39 -9
-87 -25 -49 -17 -92 -32 -98 -33 -46 -13 -285 -128 -285 -138 0 -4 -6 -8 -12
-8 -14 0 -164 -106 -211 -148 -76 -69 -127 -122 -173 -178 -92 -113 -118 -151
-169 -249 -14 -27 -30 -57 -35 -65 -26 -45 -113 -280 -103 -280 3 0 0 -7 -7
-15 -7 -8 -10 -15 -7 -15 3 0 1 -15 -4 -32 -45 -155 -62 -314 -63 -615 -1
-135 -5 -213 -11 -213 -7 0 -7 -3 0 -8 6 -4 10 -55 10 -117 0 -62 -4 -113 -10
-117 -7 -5 -7 -8 0 -8 6 0 10 -98 10 -275 0 -177 -4 -275 -10 -275 -7 0 -7 -3
0 -8 6 -4 10 -55 10 -117 0 -62 -4 -113 -10 -117 -7 -5 -7 -8 0 -8 6 0 10 -45
10 -115 0 -70 -4 -115 -10 -115 -7 0 -7 -3 0 -8 6 -4 10 -55 10 -117 0 -62 -4
-113 -10 -117 -7 -5 -7 -8 0 -8 8 0 12 -220 5 -240 -1 -3 -1 -9 0 -15 1 -5 4
-53 6 -105 5 -101 10 -162 14 -170 1 -3 2 -8 1 -12 -1 -12 38 -222 49 -258 6
-19 13 -46 16 -60 3 -13 9 -29 14 -35 4 -5 8 -12 8 -15 -2 -29 71 -201 125
-297 43 -75 118 -187 129 -191 4 -2 8 -8 8 -12 0 -5 10 -20 23 -33 12 -13 47
-50 78 -83 93 -98 158 -152 274 -229 149 -98 341 -186 505 -230 36 -9 76 -21
90 -26 29 -9 88 -22 110 -24 8 -1 31 -5 50 -8 19 -4 49 -9 65 -11 17 -2 30 -5
30 -6 0 -1 23 -3 50 -5 28 -3 73 -7 100 -10 83 -8 540 -4 540 5 0 1 20 3 45 5
130 12 346 52 410 76 14 5 34 10 45 12 11 2 27 7 35 10 8 3 38 13 65 22 135
46 296 129 415 213 104 75 320 298 320 331 0 6 4 11 8 11 5 0 15 12 23 28 8
15 16 29 19 32 20 18 118 235 129 282 1 4 9 27 17 50 20 56 51 190 58 253 4
28 10 79 15 115 5 36 9 253 10 482 l2 417 -776 0 -775 0 -1 -422 c0 -232 -2
-436 -4 -452 -16 -149 -56 -258 -119 -320 -20 -20 -76 -59 -86 -60 -3 -1 -21
-6 -40 -13 -36 -12 -180 -21 -180 -12 0 3 -13 7 -30 8 -93 7 -192 114 -225
242 -1 3 -4 12 -8 20 -12 30 -30 166 -33 249 -1 47 -3 88 -4 91 -2 3 -1 10 0
15 3 12 2 237 0 250 -1 6 -1 15 0 20 1 6 1 30 1 55 -2 72 0 134 4 139 2 2 0
11 -5 21 -5 10 -7 20 -3 24 3 3 5 29 4 58 -2 61 -2 48 0 198 0 64 0 120 -1
125 -1 6 -1 15 0 20 1 6 1 30 1 55 -2 72 0 134 4 139 2 2 0 11 -5 21 -5 10 -7
20 -3 24 3 3 5 29 4 58 -2 61 -2 48 0 198 0 64 0 120 -1 125 -1 6 -1 15 0 20
1 6 1 30 1 55 -2 72 0 134 4 139 2 2 0 11 -5 21 -5 10 -7 20 -3 24 3 3 5 29 4
58 -2 61 -2 48 0 198 0 64 0 120 -1 125 -1 6 -1 15 0 20 1 6 1 33 0 60 0 28
-1 55 -1 60 0 37 11 227 15 251 6 33 22 108 30 141 18 81 77 170 137 210 41
27 169 58 169 41 0 -5 8 -4 19 1 10 6 20 8 23 6 3 -3 26 -7 51 -10 26 -3 59
-12 74 -20 16 -8 32 -15 38 -15 5 0 29 -21 53 -47 41 -43 78 -109 87 -157 2
-12 4 -21 5 -21 1 0 3 -7 5 -15 2 -8 6 -28 11 -45 4 -16 9 -214 11 -440 3
-225 6 -412 9 -414 6 -7 1525 -7 1536 0 10 7 5 782 -6 849 -3 19 -7 50 -9 68
-2 17 -6 35 -10 38 -3 3 -3 12 0 20 3 8 0 20 -6 28 -6 7 -9 15 -6 17 5 6 -25
130 -54 219 -21 65 -123 280 -147 309 -7 9 -34 45 -60 79 -84 114 -212 232
-341 315 -24 15 -47 27 -52 27 -5 0 -11 4 -13 8 -4 10 -158 84 -213 103 -22 7
-44 16 -50 20 -5 4 -30 13 -55 20 -25 7 -49 14 -55 15 -61 18 -174 47 -190 49
-11 1 -47 7 -80 13 -114 20 -160 26 -325 38 -84 6 -370 11 -374 6z"/>
</g>
</svg>
